<?xml version="1.0" encoding="UTF-8" standalone="no" ?>
<!DOCTYPE svg PUBLIC "-//W3C//DTD SVG 1.1//EN" "http://www.w3.org/Graphics/SVG/1.1/DTD/svg11.dtd">
<svg xmlns="http://www.w3.org/2000/svg" xmlns:xlink="http://www.w3.org/1999/xlink" version="1.1" width="1080" height="1080" viewBox="0 0 1080 1080" xml:space="preserve">
<desc>Created with Fabric.js 5.2.4</desc>
<defs>
</defs>
<rect x="0" y="0" width="100%" height="100%" fill="transparent"></rect>
<g transform="matrix(1 0 0 1 540 540)" id="a68fd229-2c92-4c93-8048-e2a285578e01"  >
<rect style="stroke: none; stroke-width: 1; stroke-dasharray: none; stroke-linecap: butt; stroke-dashoffset: 0; stroke-linejoin: miter; stroke-miterlimit: 4; fill: rgb(255,255,255); fill-rule: nonzero; opacity: 1; visibility: hidden;" vector-effect="non-scaling-stroke"  x="-540" y="-540" rx="0" ry="0" width="1080" height="1080" />
</g>
<g transform="matrix(1 0 0 1 540 540)" id="2d7b6192-d71f-4af1-b6bc-2a6e91d4963c"  >
</g>
<g transform="matrix(4.24 0 0 4.24 541.17 541.17)"  >
<g style="" vector-effect="non-scaling-stroke"   >
		<g transform="matrix(1 0 0 1 0 0)"  >
<rect style="stroke: none; stroke-width: 1; stroke-dasharray: none; stroke-linecap: butt; stroke-dashoffset: 0; stroke-linejoin: miter; stroke-miterlimit: 4; fill: rgb(35,31,32); fill-rule: nonzero; opacity: 1;" vector-effect="non-scaling-stroke"  x="-123.8" y="-123.8" rx="32.53" ry="32.53" width="247.6" height="247.6" />
</g>
		<g transform="matrix(1 0 0 1 0.11 0)"  >
<path style="stroke: none; stroke-width: 1; stroke-dasharray: none; stroke-linecap: butt; stroke-dashoffset: 0; stroke-linejoin: miter; stroke-miterlimit: 4; fill: rgb(255,255,255); fill-rule: nonzero; opacity: 1;" vector-effect="non-scaling-stroke"  transform=" translate(-123.91, -123.8)" d="M 69.69 195.6 C 69.3551722907999 196.75834173818333 68.60825631007997 197.75422971247656 67.59 198.4 C 66.44877943860509 199.20066369805116 65.08392308373374 199.62061949955003 63.690000000000005 199.6 L 43.09 199.6 C 41.86845371229613 199.69435871716547 40.66561162845508 199.25696159576873 39.790000000000006 198.4 C 39.066390125477376 197.6625431689703 38.79855920767048 196.59121949774274 39.09 195.6 L 73.69 52.599999999999994 C 74.09688538653631 51.34010467881854 74.90906434879713 50.25016754331702 76 49.5 C 77.15160229957466 48.54008071762927 78.60082179144979 48.009878464504226 80.1 48 L 100.69999999999999 48 C 101.95632263209822 47.901960971077244 103.17166988368243 48.47165499525734 103.89999999999999 49.5 C 104.54016784401236 50.397394807701104 104.7591016923236 51.5285530239758 104.49999999999999 52.6 Z M 122.49 65.19999999999999 C 121.26845371229612 65.29435871716547 120.06561162845507 64.85696159576871 119.19 63.999999999999986 C 118.46639012547737 63.26254316897029 118.19855920767047 62.19121949774272 118.49 61.19999999999999 L 120.69 51.999999999999986 C 121.04087673546134 50.82101138988339 121.82749925313466 49.81985545829915 122.89 49.19999999999999 C 124.00620399194506 48.424994186169876 125.33113948882767 48.00659350294379 126.69 47.999999999999986 L 177.69 47.999999999999986 C 183.32290091537027 47.89837537363535 188.9516148974814 48.36743487214462 194.49 49.39999999999999 Q 201.09 50.79999999999998 204.49 54.09999999999999 C 206.81603001735135 56.43168313302949 208.2343078381159 59.51643739319243 208.49 62.799999999999976 Q 209.09 68.19999999999999 207.09 76.39999999999998 L 193.69 131.39999999999998 C 192.6261213083079 136.1617454497473 190.87440355386906 140.7431611152027 188.49 144.99999999999997 C 186.4730924164321 148.46814322173617 183.70542588272568 151.4408220912727 180.39000000000001 153.69999999999996 C 176.80516194918326 156.0296185700888 172.79482904262963 157.62695455829234 168.59 158.39999999999995 C 163.1491699747946 159.40626489039343 157.62258956802796 159.8751868643009 152.09 159.79999999999995 L 99.09 159.79999999999995 C 97.86845371229613 159.89435871716543 96.66561162845508 159.4569615957687 95.79 158.59999999999997 C 95.06639012547737 157.86254316897026 94.79855920767048 156.7912194977427 95.09 155.79999999999995 L 97.29 146.59999999999997 C 97.6205709616483 145.43954143387842 98.36851964578484 144.44227652169636 99.39 143.79999999999995 C 100.52999682538805 142.99683901394403 101.89568509819358 142.5766272376962 103.29 142.59999999999997 L 154.29000000000002 142.59999999999997 Q 157.89000000000001 142.59999999999997 159.19000000000003 141.39999999999998 Q 160.49000000000004 140.2 161.49000000000004 136.2 L 177.29000000000005 71.6 C 177.95000000000005 68.94 177.99000000000004 67.19999999999999 177.39000000000004 66.39999999999999 C 176.79000000000005 65.6 175.39000000000004 65.19999999999999 173.09000000000003 65.19999999999999 Z" stroke-linecap="round" />
</g>
</g>
</g>
</svg>